<?xml version="1.0" encoding="UTF-8"?>
<svg id="Layer_1" data-name="Layer 1" xmlns="http://www.w3.org/2000/svg" viewBox="0 0 229.62 300.76">
  <defs>
    <style>
      .cls-1 {
        fill: #38393a;
      }

      .cls-2 {
        fill: #3a3b3c;
      }

      .cls-3 {
        fill: #393a3b;
      }

      .cls-4 {
        fill: #363738;
      }
    </style>
  </defs>
  <path class="cls-1" d="M213.52,92.7v182.62c-1.28,14.52-10.66,23.38-25.12,24.38-48.11,3.35-100.05-2.6-148.56,0-15.9-1.64-23.33-11.16-24.38-26.62l.06-179.91c-7.19-2.19-14.13-7.02-15.04-15.12-.63-5.57-.68-20.73.07-26.19.95-6.86,7.97-12.61,14.54-13.96l54.67-.08,1.11-1.14c8.77-49.26,77.58-48.71,86.73.52l.87.63,54.66.09c17.12,3.07,17.17,21.65,16.15,35.66-.71,9.79-5.63,17.63-15.75,19.13ZM142.98,37.92c-5.75-32.34-52.03-31.69-58.5,0h58.5ZM17.52,51.58c-2.11.49-3.16,1.93-3.49,4.01-.59,3.77-.44,13.98-.08,17.99.28,3.07.78,5.01,4.21,5.54l190.49.08c2.23.07,5.09-.9,5.57-3.43.55-2.87.45-17.13-.03-20.19-.38-2.44-1.66-3.74-4.12-4.12l-192.54.11ZM198.48,93.42H29.73v184.88c0,4.06,8.32,8.78,12.34,7.91,49.9-.69,100.12,1.23,149.83-.98,2.01-.1,6.57-4.65,6.57-6.18V93.42Z"/>
  <path class="cls-2" d="M119.5,126.65c1.65,1.53,2.32,5.39,2.51,7.61-2.39,36.62,3.1,77.14,0,113.3-1.02,11.92-11.68,13.24-14.28,2.22l-.02-117.77c.21-5.81,7.41-9.45,11.78-5.37Z"/>
  <path class="cls-4" d="M66.31,125.05c2.75-.35,6.48,1.68,7.17,4.49l.52,121.02c-.88,7.49-10.19,8.71-13.18,1.9l-.35-121.18c.11-3.12,2.83-5.84,5.84-6.23Z"/>
  <path class="cls-3" d="M161.56,125.05c3.21-.41,6.51,2,7.32,5.1l.36,119.64c-.62,7.68-8.82,9.93-13.11,3.36l-.41-121.88c.11-3.12,2.83-5.84,5.84-6.23Z"/>
</svg>