<?xml version="1.0" encoding="UTF-8"?>
<svg id="Layer_1" data-name="Layer 1" xmlns="http://www.w3.org/2000/svg" viewBox="0 0 350.02 244.5">
  <defs>
    <style>
      .cls-1 {
        fill: #38393a;
      }

      .cls-1, .cls-2 {
        stroke: #000;
        stroke-miterlimit: 10;
        stroke-width: .1px;
      }

      .cls-2 {
        fill: #393a3b;
      }
    </style>
  </defs>
  <path class="cls-2" d="M160.34.53c37.81-2.64,73.53,5.5,105.84,24.97,73.95,44.55,104.46,139.5,69.08,218.95l-320.66-.37c-7.14-17.01-12.18-35.19-13.85-53.65C-7.86,95.17,64.48,7.23,160.34.53ZM323.91,226.74c28.15-82.65-16.85-172.94-99.27-200.2-66.56-22.02-140.28,3.02-179.51,60.54-27.93,40.95-34.79,92.55-18.81,139.66l105.72-.25c6.06-21.94,25.08-36.41,48.24-34.08,2.47.25,12.01,3.4,13.08,2.77l55.24-69.64c7.66-7.75,19.61.52,14.69,10.19l-56.13,70.47c4.98,5.87,9.54,12.71,10.38,20.58l106.39-.04ZM199.49,227.56c-6.88-23.63-41.94-23.69-48.75,0h48.75Z"/>
  <path class="cls-1" d="M161.84,35.79c70.62-5.65,134.95,39.56,149.78,109.27,1.56,7.32,4.24,23.41,3.38,30.4-1.34,10.97-16.37,11.55-17.92-2.36-3.13-28.18-5.83-46.31-23.05-69.95C207.89,12.37,66.48,50.72,53.25,162.7c-.7,5.91,1.46,18.61-6.54,20.46-11.73,2.7-11.88-8.45-11.46-16.71,3.37-67.16,59.53-125.3,126.59-130.66Z"/>
</svg>