<?xml version="1.0" encoding="UTF-8"?>
<svg id="Layer_1" data-name="Layer 1" xmlns="http://www.w3.org/2000/svg" viewBox="0 0 300.08 300.07">
  <defs>
    <style>
      .cls-1 {
        fill: #363738;
      }
    </style>
  </defs>
  <path class="cls-1" d="M186.03,28.54v14.25H34.9c-9.79,0-20.23,9.93-20.62,19.88l-.03,202.52c.68,11.36,10.07,20.17,21.38,20.62h200.3c9.2.44,21.35-9.86,21.35-19.15V114.04h14.25v154.88c0,14.2-18.41,31.06-32.64,31.11l-205.51.04c-17.71-1.39-31.68-14.88-33.38-32.62L.04,60.43c-.01-13.44,17.1-31.89,30.36-31.89h155.62Z"/>
  <path class="cls-1" d="M262.32.19c2.89-.64,5.07.45,7.33,2.11,4.79,3.51,24.61,23.34,28.13,28.13,2.53,3.45,3.44,6.68.31,10.05l-115.1,115.15-48.13,16.05c-3.6-1.04-6.87-4.36-6.43-8.29l16.04-46.28L259.51,1.9c.8-.76,1.7-1.47,2.81-1.71ZM147.78,152.29l27.38-8.99,106.89-107.63-17.65-17.65-107.28,106.49-9.34,27.78Z"/>
</svg>