<?xml version="1.0" encoding="UTF-8"?>
<svg id="Layer_1" data-name="Layer 1" xmlns="http://www.w3.org/2000/svg" viewBox="0 0 327.9 340.54">
  <defs>
    <style>
      .cls-1 {
        fill: #38393a;
      }
    </style>
  </defs>
  <path class="cls-1" d="M21.56.21l282.6-.21c16.73,2.32,27.03,17.53,22.8,34.1-36.82,61.88-79.08,120.76-117.35,181.9-2.17,31.13,1.68,63.99-.32,94.93-.94,14.54-8.64,27.51-24.38,28.87-10.33.89-33.39,1.11-43.44-.11-11.82-1.44-21.24-12.67-22.24-24.26-2.72-31.58,2.38-66.72-.32-98.68C83.74,159.53,44.07,105.01,8.69,47.96c-2.35-3.79-6.13-8.74-7.41-12.84C-3.59,19.56,5.95,3.85,21.56.21ZM24.55,18.2c-5.57,1.13-8.37,8.42-5.18,13.09,38.67,60.2,79.71,119.16,116.74,180.26.49,2.09,1,4.18,1.17,6.33,2.41,30.44-2.96,65.22-.06,95.31.4,4.11,2.73,8.02,7.13,8.62,7.89,1.07,30.04.77,38.32,0,4.13-.38,7.26-2.91,7.86-7.14,1.58-30.63-2.16-63.43-.05-93.8.28-4.08,1.17-8.54,2.67-12.33L308.89,31.04c2.93-6.3-.63-12.98-7.73-13.04l-276.61.2Z"/>
</svg>