<?xml version="1.0" encoding="UTF-8"?>
<svg id="Layer_1" data-name="Layer 1" xmlns="http://www.w3.org/2000/svg" viewBox="0 0 275.25 318.77">
  <defs>
    <style>
      .cls-1 {
        fill: #363738;
      }
    </style>
  </defs>
  <path class="cls-1" d="M233.25,132.01c2.23.02,4.52-.12,6.75,0,.49.03,1.04-.07,1.5,0s1.31-.25,1.51.49v10.77s-9.76,0-9.76,0v20.25l10.12-10.5h31.88v20.25h-31.88l-10.11,12.39c-1.37,20.81,1.81,43.85-.11,64.39-.95,10.16-6.35,17.01-16.75,18.5-54.17-.67-108.63,1.19-162.62-.94-5.51-2.61-10.01-7.26-11.44-13.31l-.38-67.87c-.55-3.46-8.41-10.07-10.83-13.17H0v-20.25h31.88l10.12,11.25v-21l-10.17-.7-.33-10.55c67.23.47,134.53-.62,201.75,0ZM75,153.01h-22.5v103.12l1.12,1.12h20.25l1.12-1.12v-103.12Z"/>
  <path class="cls-1" d="M233.25,130.51c-60.31-7.98-120.49-17.18-180.75-25.51,1.68-13.19,13.55-21.85,25.3-26.06,17.03-6.1,37.1-6.18,54.92-4.71l3.1-20.91,40.44,5.19c-.01,1.34.12,2.72-.07,4.07-.47,3.45-2.07,12.61-2.94,15.68-.18.64-.96.57-1.48.52v1.49c12.33,1.59,25.61,5.49,37,10.61,16.06,7.22,35.94,21.12,32.73,41.14-.46-.07-1.01.03-1.5,0-1.8-1.04-4.65-1.22-6.75-1.5ZM137.25,74.26l-3.01.38,3.01.37,30.27,3.7c1.93-.63,2.7-11.07,2.62-13.35l-31.4-4.6-1.5,13.5ZM130.5,79.52c-19.17-.52-40.56.38-57.52,10.35-1.27.75-8.64,5.59-7.73,6.89l21.22,3.05c10.58-13.56,26.05-15.96,41.8-19.15.81-.16,2.42-.05,2.22-1.13Z"/>
  <path class="cls-1" d="M58.5,44.27l-10.85,19.52c-6.84,16.15-8.03,32.05-1.28,48.48,1.41,3.44,4.9,7.22,4.26,10.74-10.15-6.11-21.45-14.54-24.17-26.83-3.96-17.86,9.98-33.14,21.9-44.44l10.14-7.48Z"/>
  <path class="cls-1" d="M66.25,69.31c-.49.31.15,1.51-1,1.2.38-4.03,4.12-7.11,6.12-10.74,7.79-14.17,7.87-32.07,1.5-46.76l-6.49-13.01c18.27,12.71,33.78,35.02,16.84,55.87-5.16,6.35-10.34,9.22-16.98,13.45Z"/>
  <path class="cls-1" d="M159,318.01h-5.25s.75-39,.75-39l5.97.04,6.41,30.72,6.73-30.03,5.65-.73.75,39.01h-4.51c-.54-7.36-.45-14.76-.75-22.14-.04-.91.57-2.79-.74-2.61l-5.33,24.67h-3.6s-6.08-25.42-6.08-25.42v25.5Z"/>
  <path class="cls-1" d="M114,318.01h-3.75s0-3.75,0-3.75c-1.39.61-1.41,2.28-3.02,3.34-3.28,2.16-9.12,1.16-11.57-1.88-3.6-4.48-3.73-27.04-1.32-32,4.83-9.94,22.96-4.48,19.66,8.04h-5.25c-.05-2.27-.27-7.34-2.78-8.11s-6.05-.04-6.82,2.64-.51,18.94-.16,22.34c.32,3.11,1.24,5.65,4.9,5.54,5.26-.16,5.21-7.31,4.86-11.17h-4.51s0-4.5,0-4.5h9.75v19.5Z"/>
  <path class="cls-1" d="M131.17,279.09l8.32,38.91c-8.22,1.52-5.35-4.05-7.45-9.42l-7.09-.37-2,9.75-5.22.04,7.65-37.73c.86-2.03,3.85-1.26,5.78-1.19ZM128.99,289.51c-2-.19-1.21-.02-1.48,1.12-1.07,4.49-1.4,9.34-2.26,13.87h6s-2.26-15-2.26-15Z"/>
  <path class="cls-1" d="M197.17,279.09l8.32,38.91c-8.22,1.52-5.35-4.05-7.45-9.42l-7.09-.37-2,9.75-5.22.04,7.65-37.73c.86-2.03,3.85-1.26,5.78-1.19ZM194.99,289.51c-2-.19-1.21-.02-1.48,1.12-1.07,4.49-1.4,9.34-2.26,13.87h6s-2.26-15-2.26-15Z"/>
  <path class="cls-1" d="M82.49,279.02l7.51,38.99h-5.25s-1.58-9.67-1.58-9.67l-6.33-.13-1.32.96-1.27,8.84h-5.26s7.54-38.97,7.54-38.97l5.96-.03ZM80.25,288.76c-1.98-.18-1.21-.04-1.49,1.12-.42,1.82-2.78,14.1-2.26,14.63h6.01s-2.26-15.75-2.26-15.75Z"/>
  <polygon class="cls-1" points="223.5 279.01 223.5 283.52 217.5 283.51 217.5 318.01 211.5 318.01 211.5 283.51 204.75 283.52 204.75 279.01 223.5 279.01"/>
  <polygon class="cls-1" points="57 279.01 57 314.26 66.75 314.26 66.75 318.01 51.75 318.01 51.75 279.01 57 279.01"/>
  <path class="cls-1" d="M240,132.01c-2.23-.12-4.52.02-6.75,0v-1.5c2.1.28,4.95.46,6.75,1.5Z"/>
  <polygon class="cls-1" points="137.25 74.26 137.25 75.01 134.24 74.64 137.25 74.26"/>
  <path class="cls-1" d="M125.25,304.51c.87-4.54,1.19-9.39,2.26-13.87.27-1.14-.52-1.32,1.48-1.12"/>
</svg>