<?xml version="1.0" encoding="UTF-8"?>
<svg id="Layer_1" data-name="Layer 1" xmlns="http://www.w3.org/2000/svg" viewBox="0 0 311.87 312.03">
  <defs>
    <style>
      .cls-1 {
        fill: #38393a;
      }

      .cls-2 {
        fill: #3b3b3c;
      }
    </style>
  </defs>
  <path class="cls-2" d="M29.23.13C68.39.63,101.65-.11,134.68.01c14.55,1.52,27.59,14.14,28.87,28.87.48,5.46-1.37,11.41-7.81,11.57-8.8.22-7.39-8.14-9.1-13.41s-7.96-10.16-13.37-10.63l-103.44.07c-6.72,1.25-12.42,6.92-13.19,13.81l-.03,250.53c.51,8.01,6.96,13.54,14.65,14.6l102.69-.07c4.27-.89,8.72-3.07,11.26-6.74,4.42-6.36.58-19.15,12.76-17.15,8.79,1.44,5.42,14.56,3.03,20.19-4.65,10.93-15.91,18.6-27.71,19.54-33.19,2.63-69.88-1.95-103.44-.12-14.26-1.75-25.24-11.24-28.79-25.21C-1.06,201.57.74,116.97.16,32.55.79,15.84,12.18-.09,29.23.13Z"/>
  <path class="cls-1" d="M283.65,147.67c-8.46-8.13-19.62-14.59-28.1-22.52-1.89-1.76-4.43-3.74-4.86-6.4-1.12-7.06,4.68-12.32,11.48-9.22,13.13,11.4,28.39,21.43,41.33,32.91,8.55,7.58,12.31,15.19,2.65,24.37-12.83,12.2-30.12,22.52-43.23,34.77-8.6,4.71-17.35-5.45-10.06-13.05,7.41-7.74,20.45-15.34,28.88-22.87.69-.62,1.67-1.31,1.9-2.23H62.03c-3.1,0-5.17-5.77-4.91-8.63s3.75-7.12,6.41-7.12h220.12Z"/>
</svg>