<?xml version="1.0" encoding="UTF-8"?>
<svg id="Layer_1" data-name="Layer 1" xmlns="http://www.w3.org/2000/svg" viewBox="0 0 347.27 346.89">
  <defs>
    <style>
      .cls-1 {
        fill: #363738;
      }
    </style>
  </defs>
  <path class="cls-1" d="M185.13,161.4h150.38c.27,0,4.43,1.4,5.06,1.69,6.36,2.91,8.61,10.59,4.95,16.57-.71,1.15-5.44,4.99-6.26,4.99h-154.12v153.38c0,.68-2.32,4.5-3.01,5.24-6.79,7.33-20.24,2.85-20.24-7.49v-151.12H7.75c-.22,0-3.3-1.84-3.76-2.24-6.48-5.58-4.87-17.09,3.37-19.9.53-.18,4.64-1.11,4.89-1.11h149.62V11.03c0-10.5,13.97-14.82,20.58-7.08.58.68,2.67,4.27,2.67,4.83v152.62Z"/>
</svg>