<?xml version="1.0" encoding="UTF-8"?>
<svg id="Layer_1" data-name="Layer 1" xmlns="http://www.w3.org/2000/svg" viewBox="0 0 301.56 301.77">
  <defs>
    <style>
      .cls-1 {
        fill: #38393a;
        opacity: .97;
        stroke: #000;
        stroke-miterlimit: 10;
        stroke-width: .5px;
      }
    </style>
  </defs>
  <path class="cls-1" d="M258.35,87.41c-2.3,2.65-3.06,5.44-2.34,8.95,4.22,5.47,5.95,21.42,13.13,22.87,3.16.64,6.9-.08,10.23.27,21.79,2.28,23,23.28,21.49,40.81-.95,11.06-9.26,20.04-20.24,21.76-5.73.9-13.33-1.49-16.69,4.31-1.21,2.09-7.14,16.23-7.74,18.5-2.23,8.45,7.28,12.53,10.68,19.37,7.79,15.66-4.4,30.25-16.35,39.47-9.05,6.99-20.15,7.98-29.73,1.36-5.8-4.01-7.57-11-15.98-8.82-3.1.81-14.19,5.63-17.52,7.22-7.15,3.41-4.35,8.28-4.97,14.53-2.33,23.49-23.14,24.82-42.35,22.88-11.39-1.15-19.57-11-20.62-22.13-.61-6.46,2.3-11.81-4.97-15.28-3.21-1.54-14.56-6.44-17.52-7.22-7.86-2.07-8.99,3.2-13.92,7.13-10.04,8.01-21.61,8.28-31.8.33-12.63-9.86-25.2-24.52-15.68-41.06,3.82-6.63,12.29-9.07,10.01-17.78-.56-2.16-6.12-15.04-7.35-17.4-3.75-7.2-8.61-4.45-15.16-5.09C.22,180.16-1.01,158.39.85,140.04c1.16-11.45,10.99-19.51,22.13-20.62,4.9-.49,11.23,1.5,14.52-3.48.82-1.25,7.54-17.29,7.99-19,2.03-7.68-2.86-8.77-6.78-13.52-9.11-11.03-8.56-22.49.41-33.36,12.47-15.13,26.63-25.02,44.58-10.88,4.51,3.56,5.33,8.06,12.6,6.56,1.41-.29,17.3-6.96,19.07-7.93,5.99-3.25,3.46-9.2,3.98-14.77,1.07-11.3,9.17-20.71,20.69-22.06,19.46-2.27,39.82-.45,42.28,22.81.63,5.96-2.14,10.86,4.5,14.25,2.73,1.39,15.43,6.84,17.98,7.51,7.59,1.98,8.16-2.36,12.76-6.03,12.65-10.08,22.97-9.75,35.27.75,14.77,12.6,23.89,26.38,9.37,43.89-1.2,1.45-3.02,2.27-3.87,3.25ZM164.84,18.4c-3.44-3.44-22.06-3.49-25.94-1.31-5.4,3.04-3.22,8.03-3.82,12.68-1.33,10.27-4.2,17.39-13.97,22.03-5.42,2.58-22.31,9.64-27.52,9.57-4.01-.05-9.07-1.75-12.45-3.89-5.31-3.35-9.06-11.25-15.99-9.92-3.67.71-17.34,14.48-17.79,18.29-.8,6.77,9.67,12.13,12.34,19.82,3.75,10.78-3.12,25.5-7.97,35.5-2.99,6.18-9.81,12.26-16.83,13.17-5.91.77-14.25-1.89-17.88,4.62-1.95,3.51-1.94,20.93.31,24.32,3.82,5.77,11.74,3.5,17.43,4.32,5.16.74,10.84,4.4,14.05,8.45,3.39,4.27,12.36,26.29,12.48,31.61.12,5.18-2.05,10.6-5.09,14.75-4.08,5.56-12.87,9.5-7.03,17.78,1.28,1.82,10.19,10.65,12.03,11.97,8.83,6.28,11.51-1.4,17.26-5.98,4.38-3.49,9.42-5.66,15.11-5.72s21.92,6.85,27.51,9.57c6.55,3.18,12.21,9.36,13.17,16.83.88,6.82-2.16,17.88,7.92,19.08,3.77.45,13.52.45,17.29,0,10.49-1.25,6.91-13.24,8.2-20.3,1.23-6.73,6.84-12.75,12.89-15.61,5.54-2.61,21.69-9.51,27.02-9.57s10.44,1.87,14.74,5.09c5.54,4.14,9.55,12.84,17.78,7.03,2.86-2.02,13.83-13.44,14.2-16.6.8-6.8-9.77-12.28-12.33-19.82-3.6-10.6,3.2-25.66,7.96-35.49,3.2-6.61,8.93-11.47,16.22-13.03,6.22-1.33,15.3.96,18.48-4.77,1.65-2.97,1.66-16.74,1.2-20.58-1.27-10.63-13.22-6.91-20.3-8.2-4.55-.83-9.93-4.64-12.71-8.29-2.26-2.96-10.68-22.28-11.47-26.03-1.81-8.57-.11-14.82,5.16-21.53,3.91-4.98,11.64-8.49,6.31-16.19-1.13-1.62-11.58-12.12-13.12-13.13-8.48-5.52-13.5,5.48-20.13,9.13-12.22,6.73-18.29,1.62-29.01-2.74-9.66-3.93-17.83-4.95-21.88-16.37-2.26-6.38.21-16.44-3.86-20.51Z"/>
  <path class="cls-1" d="M143.19,72.38c66.64-5.94,110.76,68.65,72.01,123.76-33.17,47.17-104.52,43.99-133-6.22-28.05-49.45,4.5-112.5,60.99-117.54ZM145.44,87.38c-44.35,3.84-71.09,50.22-52.24,90.79,17.44,37.54,66.79,48.34,98.5,21.46,47.43-40.2,14.84-117.55-46.25-112.25Z"/>
</svg>