<?xml version="1.0" encoding="UTF-8"?>
<svg id="Layer_1" data-name="Layer 1" xmlns="http://www.w3.org/2000/svg" viewBox="0 0 357.32 356.34">
  <defs>
    <style>
      .cls-1 {
        fill: #3a3b3c;
      }
    </style>
  </defs>
  <path class="cls-1" d="M332.63,138.87l-.64,214.24c-1.15,2.2-3.26,3.34-5.77,3.23l-296.7-.37-2.13-1.62-.82-213.68c0-.65-.25-1.09-.75-1.5-1.17-.97-9.26-3.14-12.25-5-6.9-4.28-11.56-10.89-12.42-19.08C-2.39,81.14,3.63,41.65,1.02,7.13,1.51,1.99,3.48-.18,8.9.01l344.7.37c2.19.87,3.67,2.88,3.73,5.27l-.08,111.7c-2.41,11.68-13.09,19.8-24.61,21.51ZM346.05,12.04H13.05v12.75h333v-12.75ZM50.55,36.79H13.05v79.12c0,2.32,3.82,6.37,5.76,7.74,7.77,5.5,20.35,5.26,27.4-1.36,1.5-1.41,4.34-5.98,4.34-7.88V36.79ZM100.05,36.79h-38.25v77.62c0,3.6,4.32,8.19,7.26,9.99,7.85,4.8,18.78,4.4,25.74-1.73,2.43-2.14,5.24-6.51,5.24-9.76V36.79ZM148.8,36.79h-37.5v78.38c0,1.71,3.07,6.16,4.56,7.44,7.86,6.73,22.49,6.78,29.6-1.03.58-.64,3.34-5.33,3.34-5.66V36.79ZM198.3,36.79h-37.5v79.12c0,2.32,3.82,6.37,5.76,7.74,7.77,5.5,20.35,5.26,27.4-1.36,1.5-1.41,4.34-5.98,4.34-7.88V36.79ZM247.8,36.79h-38.25v77.62c0,3.6,4.32,8.19,7.26,9.99,7.85,4.8,18.78,4.4,25.74-1.73,2.43-2.14,5.24-6.51,5.24-9.76V36.79ZM296.55,36.79h-37.5v78.38c0,1.71,3.07,6.16,4.56,7.44,7.86,6.73,22.49,6.78,29.6-1.03.58-.64,3.34-5.33,3.34-5.66V36.79ZM346.05,36.79h-37.5v79.12c0,2.32,3.82,6.37,5.76,7.74,7.77,5.5,20.35,5.26,27.4-1.36,1.5-1.41,4.34-5.98,4.34-7.88V36.79ZM320.55,138.79c-6.84-1.18-12.76-5.01-17.72-9.7-14.98,13.65-35.05,13.57-50.05,0-10.56,10.66-25.62,13.38-39.23,6.83-3.78-1.82-6.26-4.66-9.62-6.91-2.38.99-3.64,3.21-5.83,4.7-14.26,9.68-31.26,6.45-43.57-4.62-14.21,14.1-35.02,13.17-49.5,0-11.99,12.14-29.86,13.79-43.93,4.02-1.42-.99-3.41-4.1-4.93-4.1-5.46,4.38-11.1,8.96-18.37,9.78v206.25h43.5v-172.88c0-2.17,5.45-5.56,7.85-4.9h180.81c2.19-.44,7.1,1.95,7.1,4.15v173.62h43.5v-206.25ZM173.55,179.29h-80.25v14.25h80.25v-14.25ZM265.8,179.29h-81v13.12l1.12,1.12h79.88v-14.25ZM173.55,204.79h-80.25v140.25h80.25v-140.25ZM265.8,204.79h-80.25v140.25h80.25v-140.25Z"/>
</svg>