<?xml version="1.0" encoding="UTF-8"?>
<svg id="Layer_1" data-name="Layer 1" xmlns="http://www.w3.org/2000/svg" viewBox="0 0 322.46 352.78">
  <defs>
    <style>
      .cls-1 {
        fill: #363738;
      }
    </style>
  </defs>
  <path class="cls-1" d="M2.55,351c-.92-.84-1.61-2.59-1.77-3.85-3.05-25.06,3.15-57.6,13.18-80.63,62.53-143.57,276.27-119.45,305.24,34.46,2.24,11.9,4.4,34.45,2.57,46.1-.42,2.68-2.93,5.2-5.62,5.62l-308.25.08c-1.66-.02-4.15-.68-5.35-1.78ZM308.31,339.24c3.46-67.41-39.68-128.78-103.86-148.51-44.73-13.75-94.33-5.19-131.58,22.95-38.85,29.36-61.3,76.5-58.56,125.56h294Z"/>
  <path class="cls-1" d="M104.58,137.23C62.57,95.54,79.76,21.69,136.16,3.97c70.4-22.12,131.1,52.62,94.28,116.78-25.81,44.99-89.07,53.01-125.87,16.48ZM208.3,127.48c31.59-31.35,23.05-85.48-16.08-106.02-48.35-25.38-104.78,15.3-96.7,68.95,8.03,53.38,74.35,75.21,112.78,37.07Z"/>
</svg>